<?xml version="1.0" encoding="utf-8"?>
<!-- Generator: Adobe Illustrator 22.1.0, SVG Export Plug-In . SVG Version: 6.00 Build 0)  -->
<svg version="1.1" id="Ebene_1" xmlns="http://www.w3.org/2000/svg" xmlns:xlink="http://www.w3.org/1999/xlink" x="0px" y="0px"
	 viewBox="0 0 102 99" style="enable-background:new 0 0 102 99;" xml:space="preserve">
<style type="text/css">
	.st0{fill:#C4C4C4;}
</style>
<g>
	<path class="st0" d="M72.6,81c-0.8-0.5-1.6-1-2.5-1.2c-2.1-0.7-4.2-1.3-6.4-1.9c-1.5-0.5-3-0.9-4.4-1.5c-1.4-0.6-1.8-1.9-1.1-3.3
		c0.1-0.2,0.3-0.4,0.4-0.7c0.3-0.6,0.7-1.2,0.9-1.8c0.2-0.5,0.3-1,0.4-1.5l0,0c0,0,0,0,0,0c0.3-1.1,0.7-2.3,1-3.4c0,0,0,0,0,0
		c0-0.2,0.1-0.3,0.2-0.5s0.2-0.3,0.3-0.4c0.2-0.1,0.3-0.3,0.5-0.4s0.3-0.3,0.4-0.5c0.2-0.3,0.4-0.7,0.5-1.2c0-0.1,0-0.2,0.1-0.2
		c0.1-0.6,0.2-1.1,0.3-1.7c0-0.1,0-0.1,0-0.2c0.1-0.7,0.2-1.3-0.7-1.5c0-1.7,0.1-3.4,0-5c-0.1-3.4-2.1-6-5.3-6.9
		c-0.5-0.1-0.9-0.3-1.4-0.6c-3-1.6-6.2-2-9.4-1.1c-3.1,0.8-5.4,2.5-6.4,5.7c-0.4,1.4-0.5,2.7-0.5,4.2c0.1,1.3,0.2,2.5,0.3,3.9
		c-0.9,0.2-1.1,0.4-1,1.3c0.1,0.8,0.3,1.5,0.6,2.2c0.2,0.3,0.3,0.7,0.6,1c0.2,0.3,0.5,0.6,0.8,0.9c0.4,0.4,0.7,0.8,0.9,1.3
		c0.1,0.2,0.1,0.3,0.2,0.5c0,0.1,0.1,0.3,0.1,0.4c0.6,2,1.4,4,2.5,5.7c0.9,1.3,0.5,3-0.8,3.8c-0.3,0.2-0.7,0.4-1.1,0.5
		c-2.2,0.7-4.4,1.4-6.6,2c-2,0.6-4.1,1.2-5.9,2.4c-2,1.3-3.3,3.1-3.4,5.6c-0.1,1.2-0.1,2.4-0.1,3.7c0,1.5,0.6,2.5,1.9,3.1
		c0.5,0.2,1,0.5,1.5,0.7c5.3,2.5,10.9,3.8,16.8,4.2c6.2,0.5,12.3,0.1,18.4-1.5c3.2-0.8,6.3-1.9,9.1-3.6c1-0.6,1.6-1.4,1.6-2.5
		c0-0.7,0.1-1.3,0.2-2C76.6,85.8,75.6,82.9,72.6,81z"/>
	<path class="st0" d="M98.5,59.2c-0.7-0.4-1.4-0.8-2.1-1.1c-1.8-0.6-3.6-1.1-5.4-1.7c-1.3-0.4-2.5-0.8-3.8-1.3
		c-1.2-0.5-1.6-1.6-0.9-2.8c0.1-0.2,0.3-0.4,0.4-0.6c0.3-0.5,0.6-1,0.8-1.5c0.4-1.4,0.8-2.8,1.2-4.2c0.1-0.3,0.3-0.5,0.5-0.7
		c0.6-0.5,1-1.1,1.2-1.8c0.2-0.6,0.3-1.2,0.4-1.8c0.1-0.6,0.2-1.1-0.6-1.3c0-1.5,0-2.9,0-4.3c-0.1-2.9-1.8-5.1-4.5-5.8
		c-0.4-0.1-0.8-0.3-1.2-0.5c-2.6-1.4-5.2-1.7-8-1c-2.6,0.7-4.6,2.2-5.5,4.9c-0.4,1.2-0.5,2.3-0.4,3.5c0.1,1.1,0.2,2.2,0.3,3.3
		C70,40.8,69.9,41,70,41.7c0.1,1.4,0.6,2.6,1.6,3.5c0.5,0.4,0.7,0.9,0.9,1.5c0.5,1.9,1.2,3.6,2.3,5.2c0.8,1.1,0.5,2.5-0.7,3.2
		c-0.3,0.2-0.6,0.3-0.9,0.4c-1.6,0.5-3.2,1-4.8,1.5c0.6,1.2,0.9,2.7,0.5,4.5L68.7,62c-0.1,0.7-0.3,1.4-0.5,2.2
		c-0.4,1.5-1.2,2.9-2.3,4.1c-0.1,0.4-0.2,0.8-0.3,1.2c-0.2,0.7-0.4,1.5-0.7,2.2c3.8,1.4,7.7,2.3,11.8,2.6c5.3,0.4,10.5,0.1,15.7-1.3
		c2.7-0.7,5.3-1.6,7.8-3c0.8-0.5,1.3-1.2,1.4-2.1c0-0.6,0.1-1.1,0.1-1.7C101.9,63.2,101,60.8,98.5,59.2z"/>
	<path class="st0" d="M34.2,14.4c2.9,2.2,5.9,4.4,8.8,6.6c0.2,0.2,0.3,0.3,0.2,0.6c-0.4,1.1-0.7,2.2-1,3.3c-0.8,2.4-1.5,4.8-2.3,7.2
		c-0.2,0.8,0.2,1.5,0.9,1.5c0.3,0,0.6-0.1,0.8-0.3c3-2.1,6-4.2,8.9-6.3c0.1-0.1,0.2-0.1,0.3-0.2c3.1,2.2,6.2,4.4,9.2,6.6
		c0.5,0.4,1,0.4,1.3,0.1c0.4-0.3,0.5-0.7,0.3-1.3c-1.1-3.5-2.2-7-3.3-10.5c-0.1-0.3-0.1-0.4,0.2-0.6c2.2-1.6,4.4-3.2,6.5-4.9
		c0.8-0.6,1.6-1.2,2.4-1.8c0.4-0.3,0.5-0.7,0.4-1.1c-0.1-0.4-0.5-0.7-1-0.7c-0.1,0-0.3,0-0.4,0c-3.6,0-7.2-0.1-10.8-0.1
		c-0.3,0-0.4-0.1-0.4-0.3c-0.3-1-0.6-1.9-1-2.8c-0.9-2.5-1.7-5-2.6-7.6c-0.1-0.3-0.3-0.6-0.5-0.8c-0.6-0.4-1.3-0.1-1.5,0.6
		C49.3,3.3,48.6,5.1,48,7c-0.6,1.8-1.2,3.5-1.8,5.4c-0.1,0-0.2,0-0.3,0c-2.5,0-5.1,0.1-7.6,0.1c-1.2,0-2.4,0-3.6,0
		c-0.7,0-1.2,0.5-1,1.2C33.8,13.9,34,14.2,34.2,14.4z"/>
	<path class="st0" d="M37.9,71.1c-0.4-0.9-0.7-1.9-1-2.9c-1.8-1.9-2.9-4.4-3.1-7.2c-0.1-1.5,0.1-2.9,0.8-4c0,0,0,0,0-0.1
		c-0.9-0.3-1.9-0.5-2.8-0.8c-1.3-0.4-2.5-0.8-3.8-1.3c-1.2-0.5-1.6-1.6-0.9-2.8c0.1-0.2,0.3-0.4,0.4-0.6c0.3-0.5,0.6-1,0.8-1.5
		c0.4-1.4,0.8-2.8,1.2-4.2c0.1-0.3,0.3-0.5,0.5-0.7c0.6-0.5,1-1.1,1.2-1.8c0.2-0.6,0.3-1.2,0.4-1.8c0.1-0.6,0.2-1.1-0.6-1.3
		c0-1.5,0-2.9,0-4.3c-0.1-2.9-1.8-5.1-4.5-5.8c-0.4-0.1-0.8-0.3-1.2-0.5c-2.6-1.4-5.2-1.7-8-1c-2.6,0.7-4.6,2.2-5.5,4.9
		c-0.4,1.2-0.5,2.3-0.4,3.5c0.1,1.1,0.2,2.2,0.3,3.3c-0.8,0.2-0.9,0.3-0.8,1.1c0.1,1.4,0.6,2.6,1.6,3.5c0.5,0.4,0.7,0.9,0.9,1.5
		c0.5,1.9,1.2,3.6,2.3,5.2c0.8,1.1,0.5,2.5-0.7,3.2c-0.3,0.2-0.6,0.3-0.9,0.4c-1.9,0.6-3.8,1.2-5.7,1.7c-1.7,0.5-3.5,1-5,2
		c-1.7,1.1-2.8,2.7-2.9,4.8C0.3,65,0.3,66,0.3,67c0,1.2,0.5,2.1,1.7,2.7c0.4,0.2,0.9,0.4,1.3,0.6c4.5,2.1,9.3,3.2,14.3,3.6
		c5.3,0.4,10.5,0.1,15.7-1.3C34.8,72.2,36.4,71.7,37.9,71.1z"/>
</g>
</svg>
