<?xml version="1.0" encoding="utf-8"?>
<!-- Generator: Adobe Illustrator 22.1.0, SVG Export Plug-In . SVG Version: 6.00 Build 0)  -->
<svg version="1.1" id="Ebene_1" xmlns="http://www.w3.org/2000/svg" xmlns:xlink="http://www.w3.org/1999/xlink" x="0px" y="0px"
	 viewBox="0 0 80 97" style="enable-background:new 0 0 80 97;" xml:space="preserve">
<style type="text/css">
	.st0{fill:#C4C4C4;}
</style>
<path class="st0" d="M79.2,19.1c0-0.6-0.2-0.9-0.8-1.2C66,12.4,53.6,6.9,41.2,1.4c-0.9-0.4-1.5-0.4-2.4,0C26.4,6.9,14,12.4,1.6,17.9
	c-0.6,0.3-0.8,0.6-0.8,1.3c0,4.9,0,9.9,0,14.8c0,0,0,0,0,0c0,0.4,0,0.9,0,1.3c0.1,4.7-0.1,9.5,0.3,14.2c1,11,5.1,20.9,12.1,29.5
	c6.8,8.5,15.3,14.4,25.9,17.3c0.5,0.1,1.1,0.1,1.7,0c9.7-2.6,17.7-7.8,24.3-15.3c9.1-10.4,13.9-22.6,14-36.5
	C79.2,36.1,79.1,27.6,79.2,19.1z M67.1,34.1L38.5,70.6c-0.6,0.8-1.6,1.4-2.6,1.5c-1.1,0.1-2.1-0.2-2.8-0.7l-0.2-0.2
	c-0.4-0.3-0.7-0.5-1-0.9L16.4,51.2c-1.4-1.7-1.1-4.2,0.6-5.6c0.6-0.5,1.3-0.7,2-0.8c0.3,0,0.6,0,0.9,0c1.1,0.1,2,0.6,2.7,1.5
	l12.6,15.6l25.6-32.7c0.6-0.8,1.6-1.4,2.6-1.5l0,0c1.1-0.1,2.1,0.2,2.9,0.8C68.1,29.9,68.4,32.4,67.1,34.1z"/>
</svg>
